# xmcd
#
# Track frame offsets:
#	150
#	14077
#	28412
#
# Disc length: 565 seconds
#
# Revision: 0
# Processed by: cddbd v1.5.2PL0 Copyright (c) Steve Scherf et al.
# Submitted via: audiograbber 1.83.01
#
DISCID=24023303
DTITLE=Münchner Zwietracht - Österreich
DYEAR=2000
DGENRE=Volksmusik
TTITLE0=Österreich (Sommerversion)
TTITLE1=Cabrio
TTITLE2=Österreich (Winterversion)
EXTD=<http://www.hit-radio24.de>
EXTT0=
EXTT1=
EXTT2=
PLAYORDER=
